Patient4_TMGait_0pt5_01_left_43_EMG.mot
version=1
nRows=40
nColumns=33
inDegrees=no
endheader
time	1LAddLong	2LGlutMax	3LGlutMed	4LIliopsoas	5LSemiMemb	6LBicFemLong	7LRecFem	8LVastMed	9LVastLat	10LGasMed	11LTibAnt	12lTibPost	13LPeroneusLong	14LSol	15LExtDigLong	16LFlexDigLong	17RAddLong	18RGlutMax	19RGlutMed	20RIliopsoas	21RSemiMemb	22RBicFemLong	23RRecFem	24RVastMed	25RVastLat	26RGasMed	27RTibAnt	28RTibPost	29RPeroneusLong	30RSol	31RExtDigLong	32RFlexDigLong
57.25	0.015869	-0.27924	0.001373	0.007629	0.010071	0.031586	0.49133	0.007477	-0.18066	0.031128	-0.075226	0.006409	0.076294	-0.004425	-0.013885	-0.005951	-0.007019	-0.19272	0.052643	0.035706	-0.04425	-0.071411	-0.012817	-0.16266	0.050049	-0.000763	0.40009	0.010223	0.42831	-0.084381	-0.004883	-0.007324
57.251	0.02182	-0.30746	-0.032959	0.002441	0.011749	-0.001678	0.42084	0.000458	-0.18463	0.0383	-0.023804	0.003204	0.052185	0.028839	0.19699	-0.001526	-0.00061	-0.15305	0.063934	-0.018005	-0.013885	0.20142	0.012054	-0.087585	0.095062	0.001526	0.49988	0.015869	0.84213	0.011292	-0.002747	-0.007629
57.252	0.015564	-0.32013	-0.036316	-0.016785	0.007324	0.005188	0.37567	0.007172	-0.18478	-0.027161	0.032654	0.004272	0.10468	0.068359	0.15427	0.005646	0.024414	-0.13977	0.13428	-0.038452	-0.024414	0.31097	0.11643	-0.003204	0.072021	-0.009766	-0.32928	0.009155	0.83969	0.010529	-0.007629	-0.00061
57.253	0.007019	-0.34119	-0.025787	-0.000916	0.011444	0.016327	0.35461	0.003052	-0.18387	-0.02243	0.060272	0.007019	0.08316	0.028839	0.31555	-0.005188	0.019379	-0.168	0.097046	-0.053711	-0.011902	0.27405	0.068207	0.087128	0.050049	0	-1.1476	0.015564	0.82214	-0.1738	-0.003815	0.000153
57.254	0.008698	-0.35355	-0.039673	0.000305	0.019226	0.01297	0.30685	0.00946	-0.17578	-0.034637	-0.051117	0.005493	0.084076	0.04364	0.16327	-0.004578	0.016785	-0.22095	-0.24048	-0.000458	-0.020294	0.22903	0.022278	0.14648	0.083618	0.015717	-0.89798	0.015259	0.26276	-0.32806	-0.001373	-0.002289
57.255	0.008698	-0.36484	-0.041351	0.001831	0.01236	0.0177	0.2269	0.004578	-0.17777	-0.052032	-0.023041	0.007172	0.064087	0.069122	-0.001831	-0.000916	0.00061	-0.21423	-0.32577	0.024414	0.00061	0.28885	-0.030823	0.000763	-0.002136	0.027313	-0.37842	0.017853	-0.83389	-0.27496	-0.00061	-0.001526
57.256	0.00824	-0.41214	-0.016174	0.003357	0.010223	0.030518	0.14771	0.009766	-0.17151	-0.029449	0.045624	0.006409	0.010223	0.02121	0.62683	-0.004578	-0.008392	-0.17487	-0.030518	0.062866	0.015869	0.10941	-0.24414	-0.0354	-0.037231	0.018311	-0.32227	0.019379	0.1709	-0.049744	0.001068	0.001831
57.257	0.009766	-0.43701	-0.026245	0.014648	0.009003	0.016937	0.057526	0.015869	-0.16907	-0.013275	0.068207	0.006256	-0.01297	0.035095	0.70114	0	-0.018921	-0.25848	0.12772	0.15549	0.037537	0.034027	-0.11963	0.10269	0.088501	0.005493	-0.076141	0.014954	0.54947	0.13931	-0.002747	-0.003204
57.258	0.007324	-0.45181	-0.02243	0.005035	0.009613	0.011292	-0.010834	0.003967	-0.16693	0.037994	0.16251	0.004425	-0.055542	0.015259	-0.47195	-0.001526	-0.005798	-0.20432	-0.00473	0.13916	0.027924	0.14648	0.16464	0.033112	0.066528	-0.007935	0.25696	0.010529	-0.94605	0.23651	-0.004578	0.007019
57.259	0.010834	-0.4689	-0.011902	0.006256	-0.001831	0.007019	-0.023041	0.001678	-0.16098	0.072937	0.28931	0.005646	-0.059662	0.056458	-0.45456	0.001373	0.015259	-0.24155	0.097504	0.07843	-0.021667	-0.072479	0.2475	-0.082703	-0.048523	-0.001678	0.2359	0.011902	0.40756	0.083008	-0.003357	-0.004425
57.26	0.011444	-0.47287	-0.016785	0.016937	0.008087	0.00885	0.038147	-0.002289	-0.1648	0.021667	0.12451	0.003357	0.011597	0.046539	-0.54596	-0.001678	0.01236	-0.29968	-0.016174	0.027466	-0.008545	-0.33386	0.0383	-0.094299	0.056915	-0.002289	0.13565	0.013885	0.40176	0.010529	-0.000153	-0.002747
57.261	0.00351	-0.5101	-0.043335	0.014954	0.005951	0.004578	0.08316	0.000916	-0.17212	-0.022888	0.036774	0.005798	0.10971	0.012054	-0.5368	-0.009766	0.008392	-0.22247	-0.29221	-0.078735	0.007629	-0.59448	-0.44739	-0.19333	0.31372	-0.010223	-0.457	0.010681	0.13275	0.13992	-0.001678	-0.011902
57.262	0.006866	-0.47943	-0.034332	0.011749	0.000305	0.001373	0.033112	-0.002747	-0.168	-0.050964	-0.059052	0.005798	0.13611	-0.018005	-0.43457	-0.009003	0.037079	-0.22492	-0.099945	-0.25559	-0.021362	-0.56686	-0.34439	-0.22339	0.53574	-0.001068	-0.33463	0.013123	-0.35187	0.12466	-0.001831	-0.003662
57.263	0.016022	-0.49911	-0.034027	0.003052	0.000763	-0.00351	0.07431	0.000458	-0.17425	-0.031281	0.024872	0.009003	0.063324	-0.017548	0.049896	0.012665	0.011902	-0.24933	0.19058	-0.26657	-0.024109	-0.52917	-0.11353	0.14389	0.33707	-0.015717	-0.045929	0.016937	-0.72906	0.2861	-0.004883	-0.010681
57.264	0.007935	-0.48355	-0.028839	-0.000916	0.005646	-0.00473	0.083313	0.007477	-0.17166	-0.011597	-0.15976	0.007629	0.11078	-0.071869	0.088348	-0.001526	0.007782	-0.20844	0.31311	-0.11612	-0.08728	-0.32166	-0.056	0.14236	-0.16861	-0.014038	-0.53253	0.013275	0.018158	0.30319	-0.003052	-0.009003
57.265	0.007935	-0.4892	-0.031128	-0.00473	0.00412	-0.009918	0.12283	0.003967	-0.1796	-0.039673	-0.3508	0.005798	0.1593	-0.059357	0.065308	0.006714	0.030212	-0.19516	-0.070648	0.068207	-0.13397	-0.18951	-0.04837	0.12466	-0.50552	0.003204	-0.4773	0.011597	0.64133	0.20203	-0.005188	-0.003052
57.266	0.007172	-0.44266	-0.032959	0.013428	-0.006256	-0.007782	0.1387	-0.003967	-0.16998	-0.027771	-0.26504	0.002747	0.12222	-0.073395	0.37293	0.014648	0.0177	-0.14008	0.2565	0.13702	-0.16617	0.072937	0.11856	0.046539	-0.2533	0.010986	-0.40604	0.012054	0.66696	-0.033112	-0.003052	0.00473
57.267	0.013733	-0.42648	-0.021973	0.010223	0.007324	-0.011292	0.12146	0.025787	-0.18616	-0.011444	-0.11017	0.003357	0.068054	-0.07019	0.27603	0.007782	0.023499	-0.20203	0.79681	0.17456	-0.077515	0.46829	0.22766	-0.020752	-0.14587	0.006104	0.002441	0.007477	-0.65765	-0.056915	-0.003357	-0.002136
57.268	0.009003	-0.42877	-0.062561	-0.001678	-0.001984	-0.002747	0.11856	-0.007629	-0.19012	0.01709	-0.063019	0.010529	-0.031128	-0.030365	-0.046692	0.002441	0.005341	-0.22156	0.44205	0.061188	-0.067596	0.69214	0.26291	-0.011749	-0.12619	-0.00824	0.11047	0.014191	-1.3615	-0.003204	-0.007172	-0.008392
57.269	0.005951	-0.40604	-0.062561	0.006561	0.002441	-0.014343	0.10559	0.014954	-0.19852	0.019531	-0.047607	0.008392	-0.00473	0.027161	-0.17807	-0.013885	0.027618	-0.22186	0.55847	-0.055847	-0.13275	0.51254	0.34622	-0.10346	-0.10468	-0.015564	-0.084839	0.007324	-3.0525	-0.055847	-0.003052	-0.007172
57.27	0.007477	-0.36163	-0.073547	0.003662	-0.005798	-0.012054	0.11124	0.020752	-0.20538	-0.016937	0.11231	0.002899	0.082245	0.024872	-0.049744	-0.001831	0.047913	-0.1915	0.49942	-0.081787	-0.13886	0.41733	0.3447	-0.11017	-0.10864	-0.004883	0.040588	0.016785	-0.83511	-0.0383	-0.002594	-0.003052
57.271	0.008698	-0.32272	-0.061188	0.00885	0.007019	-0.008698	0.12711	0.001221	-0.20966	-0.013275	0.15228	0.010376	0.024261	-0.003967	0.13534	0.015259	0.014496	-0.22659	0.041809	-0.13886	0.085144	0.46738	-0.023041	-0.12192	-0.07309	0.002594	0.29266	0.007629	1.7958	0.00946	-0.003357	-0.010223
57.272	0.00061	-0.3067	-0.069885	0.007477	-0.000916	-0.000916	0.14252	0.00412	-0.21774	-0.001831	0.081635	0.006714	-0.018921	-0.025635	-0.074158	-0.000153	-0.029602	-0.20599	-0.094299	-0.099487	0.04837	0.28976	-0.35721	-0.078278	-0.035858	-0.014343	0.46631	0.010986	1.9951	0.12405	0.002441	-0.012817
57.273	0.01358	-0.3006	-0.075684	0.001678	-0.005493	-0.007782	0.15335	0.002594	-0.242	-0.011749	0.020294	-0.001984	0.000763	0.028229	-0.112	0.006714	-0.043335	-0.25528	-0.24216	0.003204	0.11551	-0.077515	-0.22003	0.095978	0.057831	-0.018616	0.074463	0.010223	0.23209	0.26184	-0.005646	-0.010223
57.274	0.011597	-0.24796	-0.06424	-0.00885	-0.005035	-0.005493	0.15549	0.007629	-0.2478	-0.012207	0.045776	-0.009003	0.014038	-0.02533	-0.11841	0.008698	0.001526	-0.16556	0.52628	0.15595	0.22644	-0.41382	0.042419	0.056152	0.31891	-0.022888	-0.14969	0.012512	-0.20844	0.26657	-0.005341	-0.013428
57.275	0.007324	-0.20187	-0.06012	0.003357	0.009613	-0.015869	0.18616	-0.002289	-0.26169	-0.00473	-0.030975	0.002136	0.040436	-0.063019	-0.11551	-0.005493	-0.002289	-0.16434	0.2504	0.2269	0.19775	-0.46036	-0.04303	0.008545	0.71014	-0.025787	-0.045319	0.013733	0.49271	0.25345	-0.002136	-0.014038
57.276	0.011139	-0.23041	-0.072174	0.028229	0.008698	-0.03479	0.224	0.003815	-0.28091	-0.012665	-0.085297	0.009155	0.099182	-0.10681	-0.12817	0.000305	0.00061	-0.23148	0.19775	0.12711	0.11322	-0.3978	-0.13779	-0.020447	0.68634	-0.019531	0.30029	0.007324	0.6868	0.078278	0.003815	-0.00946
57.277	0.007477	-0.20218	-0.079956	0.00946	0.003815	-0.008545	0.23911	0.001068	-0.31509	0.002289	-0.086212	-0.002899	0.10819	-0.056305	0.084839	-0.007629	0.005341	-0.21576	0.33981	0.10696	0.071564	-0.24338	-0.1442	-0.17838	0.40527	-0.007477	0.62958	0.006866	-1.3736	-0.002441	-0.002441	-0.013885
57.278	0.005493	-0.22293	-0.086975	0.001526	-0.001373	0.016785	0.19928	-0.000305	-0.34058	-0.003967	-0.03067	0.005646	0.063934	0.011597	0.159	-0.001221	0.025635	-0.19974	0.2446	0.10437	0.010681	-0.18616	0.000305	-0.20294	0.15167	-0.004578	0.62012	0.012512	-2.645	-0.055237	-0.003967	-0.019073
57.279	0.005035	-0.2153	-0.083771	0.000153	-0.007172	0.019531	0.15167	0.002747	-0.36407	0.015411	-0.046844	0.005798	0.001068	0.032806	0.17899	0.006866	0.0177	-0.15457	0.48553	0.04425	-0.040741	0.004272	-0.018616	-0.18265	-0.16998	0.003815	0.078278	0.015106	-0.72586	-0.067749	-0.00351	-0.00946
57.28	0.013428	-0.20996	-0.079041	0.006409	-0.002136	0.00824	0.10925	0.007935	-0.40237	0.015564	0.006409	0.005341	-0.028839	0.075836	0.11414	0.000763	0.020905	-0.17609	0.53741	-0.060883	-0.07843	0.13016	0.10788	-0.063629	-0.45151	0.008087	-0.31769	0.007782	1.0069	-0.032959	-0.005798	-0.009003
57.281	0.01358	-0.17075	-0.067596	0.005951	0.013123	0.01709	0.1091	-0.002136	-0.43335	0.002441	0.10269	-0.005188	-0.029449	-0.028076	0.1239	0.007782	0.00824	-0.12238	0.24368	-0.018921	-0.13626	0.15579	0.12085	-0.03006	-0.66406	-0.005951	-0.10422	0.006409	0.21225	0.01358	-0.001678	-0.003052
57.282	0.005798	-0.16754	-0.063019	0.005188	0.011292	-0.00885	0.10376	-0.008545	-0.47806	-0.003052	0.11993	0.003052	-0.030212	-0.11032	-0.019989	-0.004272	-0.015869	-0.13825	-0.49484	-0.071716	-0.029297	0.14145	0.037384	-0.050659	-0.6308	-0.002136	0.10712	0.006409	0.096741	-0.052795	-0.000153	-0.001984
57.283	0.010223	-0.15671	-0.05127	0.00351	-0.020142	-0.023804	0.092926	-0.005341	-0.50751	-0.022583	0.062103	0.002136	-0.011444	-0.069275	0.032959	0.004272	-0.027771	-0.1915	-0.018158	-0.086517	0.042877	-0.016937	-0.17151	0.075836	-0.24078	-0.000305	0.058594	0.01236	0.74905	-0.32577	-0.002899	-0.00824
57.284	0.007477	-0.17746	-0.071106	0.007629	-0.002441	-0.018463	0.057373	-0.002289	-0.51849	-0.037231	-0.079346	0.002136	0.034637	-0.008392	0.11185	0.007782	-0.007172	-0.31387	-0.34347	-0.057373	0.12726	-0.06485	-0.19257	0.14999	0.063629	0.003815	-0.35843	0.00351	0.8136	-0.38269	-0.006104	-0.007019
57.285	0.009918	-0.1741	-0.073853	0.000916	-0.003815	0.008392	0.061951	-0.000153	-0.49972	-0.054169	0.084534	0.001526	0.048981	-0.006714	0.011139	0.010986	0.011749	-0.29465	-0.10681	0.010681	0.14801	-0.058594	-0.074005	0.1088	0.056915	-0.002441	-0.51712	0.00412	0.59967	-0.073395	-0.002899	-0.002747
57.286	-0.001068	-0.14786	-0.044861	-0.003967	-0.002747	-0.020599	0.044098	-0.005646	-0.48325	-0.062561	0.057526	-0.000153	0.054474	0.001526	-0.046844	0.011902	0.026398	-0.26032	0.74387	-0.012054	0.12451	-0.1355	0.041962	0.042419	0.032043	-0.015106	-0.22858	0.000763	-0.51926	0.0914	0.000153	0.009613
57.287	0.015411	-0.11429	-0.03006	-0.005341	0.001221	-0.017242	0.033417	-0.001678	-0.46295	-0.032196	-0.026245	0.010986	0.007477	-0.010681	-0.048523	0.009918	0.038147	-0.24078	0.77408	-0.026855	0.087738	-0.051422	0.11551	0.011902	0.034485	-0.009003	0.4245	0.006409	-0.16129	0.1239	-0.005188	-0.010529
57.288	0.014343	-0.11368	-0.050049	0.009308	-0.001373	-0.023041	0.022278	-0.00061	-0.40909	0.009766	-0.044861	0.003967	0.008392	0.002899	0.011292	0.004425	0.024109	-0.28015	0.15549	-0.014648	-0.072632	0.11551	0.089569	0.072784	0.03952	-0.013733	0.76736	0.00061	0.22018	0.069885	-0.009003	-0.009766
57.289	0.011597	-0.12253	-0.050507	-0.002136	0.007935	-0.017853	0.003204	-0.008698	-0.37201	0.021362	-0.063171	0.005951	0.039978	0.018616	0.11704	0.002899	-0.016632	-0.29098	0.079041	0.035553	-0.18662	0.13351	0.12711	0.14786	0.12299	-0.017242	0.56152	0.002136	0.37582	0.013123	-0.002747	-0.007172
